<mxfile host="app.diagrams.net" modified="2022-07-23T03:20:38.335Z" agent="5.0 (Windows)" etag="eAecq4hoXIhuOhEKX4Qn" version="20.0.4" type="github">
  <diagram id="C5RBs43oDa-KdzZeNtuy" name="Page-1">
    <mxGraphModel dx="791" dy="384" grid="1" gridSize="10" guides="1" tooltips="1" connect="1" arrows="1" fold="1" page="1" pageScale="1" pageWidth="827" pageHeight="1169" math="0" shadow="0">
      <root>
        <mxCell id="WIyWlLk6GJQsqaUBKTNV-0" />
        <mxCell id="WIyWlLk6GJQsqaUBKTNV-1" parent="WIyWlLk6GJQsqaUBKTNV-0" />
        <mxCell id="4pMJG9k6GhykvoCumbi--1" style="edgeStyle=orthogonalEdgeStyle;rounded=0;orthogonalLoop=1;jettySize=auto;html=1;" edge="1" parent="WIyWlLk6GJQsqaUBKTNV-1">
          <mxGeometry relative="1" as="geometry">
            <mxPoint x="414" y="310" as="targetPoint" />
            <mxPoint x="414" y="230" as="sourcePoint" />
          </mxGeometry>
        </mxCell>
        <mxCell id="4pMJG9k6GhykvoCumbi--2" style="edgeStyle=orthogonalEdgeStyle;rounded=0;orthogonalLoop=1;jettySize=auto;html=1;entryX=0.5;entryY=0;entryDx=0;entryDy=0;" edge="1" parent="WIyWlLk6GJQsqaUBKTNV-1" target="4pMJG9k6GhykvoCumbi--4">
          <mxGeometry relative="1" as="geometry">
            <mxPoint x="560" y="310" as="targetPoint" />
            <mxPoint x="414" y="230" as="sourcePoint" />
            <Array as="points">
              <mxPoint x="414" y="270" />
              <mxPoint x="550" y="270" />
            </Array>
          </mxGeometry>
        </mxCell>
        <mxCell id="4pMJG9k6GhykvoCumbi--3" style="edgeStyle=orthogonalEdgeStyle;rounded=0;orthogonalLoop=1;jettySize=auto;html=1;" edge="1" parent="WIyWlLk6GJQsqaUBKTNV-1">
          <mxGeometry relative="1" as="geometry">
            <mxPoint x="280" y="310" as="targetPoint" />
            <mxPoint x="414" y="230" as="sourcePoint" />
            <Array as="points">
              <mxPoint x="414" y="270" />
              <mxPoint x="280" y="270" />
            </Array>
          </mxGeometry>
        </mxCell>
        <mxCell id="4pMJG9k6GhykvoCumbi--16" style="edgeStyle=orthogonalEdgeStyle;rounded=0;orthogonalLoop=1;jettySize=auto;html=1;entryX=0.847;entryY=0.041;entryDx=0;entryDy=0;entryPerimeter=0;" edge="1" parent="WIyWlLk6GJQsqaUBKTNV-1" source="4pMJG9k6GhykvoCumbi--4" target="4pMJG9k6GhykvoCumbi--10">
          <mxGeometry relative="1" as="geometry">
            <Array as="points" />
          </mxGeometry>
        </mxCell>
        <mxCell id="4pMJG9k6GhykvoCumbi--4" value="Dexterity Increases" style="rounded=1;whiteSpace=wrap;html=1;" vertex="1" parent="WIyWlLk6GJQsqaUBKTNV-1">
          <mxGeometry x="490" y="310" width="120" height="40" as="geometry" />
        </mxCell>
        <mxCell id="4pMJG9k6GhykvoCumbi--5" value="&lt;div&gt;Random&lt;/div&gt;&lt;div&gt;Number&lt;/div&gt;&lt;div&gt;Generator&lt;br&gt;&lt;/div&gt;" style="rhombus;whiteSpace=wrap;html=1;" vertex="1" parent="WIyWlLk6GJQsqaUBKTNV-1">
          <mxGeometry x="369" y="140" width="90" height="90" as="geometry" />
        </mxCell>
        <mxCell id="4pMJG9k6GhykvoCumbi--7" style="edgeStyle=orthogonalEdgeStyle;rounded=0;orthogonalLoop=1;jettySize=auto;html=1;entryX=0.5;entryY=0;entryDx=0;entryDy=0;" edge="1" parent="WIyWlLk6GJQsqaUBKTNV-1" source="4pMJG9k6GhykvoCumbi--6" target="4pMJG9k6GhykvoCumbi--5">
          <mxGeometry relative="1" as="geometry" />
        </mxCell>
        <mxCell id="4pMJG9k6GhykvoCumbi--6" value="Leveled Up" style="rounded=1;whiteSpace=wrap;html=1;" vertex="1" parent="WIyWlLk6GJQsqaUBKTNV-1">
          <mxGeometry x="354" y="50" width="120" height="40" as="geometry" />
        </mxCell>
        <mxCell id="4pMJG9k6GhykvoCumbi--15" style="edgeStyle=orthogonalEdgeStyle;rounded=0;orthogonalLoop=1;jettySize=auto;html=1;" edge="1" parent="WIyWlLk6GJQsqaUBKTNV-1" source="4pMJG9k6GhykvoCumbi--8">
          <mxGeometry relative="1" as="geometry">
            <mxPoint x="414" y="390" as="targetPoint" />
          </mxGeometry>
        </mxCell>
        <mxCell id="4pMJG9k6GhykvoCumbi--8" value="Intelligence Increases" style="rounded=1;whiteSpace=wrap;html=1;" vertex="1" parent="WIyWlLk6GJQsqaUBKTNV-1">
          <mxGeometry x="354" y="310" width="120" height="40" as="geometry" />
        </mxCell>
        <mxCell id="4pMJG9k6GhykvoCumbi--12" style="edgeStyle=orthogonalEdgeStyle;rounded=0;orthogonalLoop=1;jettySize=auto;html=1;entryX=0.154;entryY=0.041;entryDx=0;entryDy=0;entryPerimeter=0;" edge="1" parent="WIyWlLk6GJQsqaUBKTNV-1" source="4pMJG9k6GhykvoCumbi--9" target="4pMJG9k6GhykvoCumbi--10">
          <mxGeometry relative="1" as="geometry" />
        </mxCell>
        <mxCell id="4pMJG9k6GhykvoCumbi--9" value="Strength Increases" style="rounded=1;whiteSpace=wrap;html=1;" vertex="1" parent="WIyWlLk6GJQsqaUBKTNV-1">
          <mxGeometry x="220" y="310" width="120" height="40" as="geometry" />
        </mxCell>
        <mxCell id="4pMJG9k6GhykvoCumbi--10" value="Script Refreshes PlayerStats" style="rounded=1;whiteSpace=wrap;html=1;" vertex="1" parent="WIyWlLk6GJQsqaUBKTNV-1">
          <mxGeometry x="220" y="390" width="390" height="30" as="geometry" />
        </mxCell>
        <mxCell id="4pMJG9k6GhykvoCumbi--13" value="" style="endArrow=classic;html=1;rounded=0;" edge="1" parent="WIyWlLk6GJQsqaUBKTNV-1">
          <mxGeometry width="50" height="50" relative="1" as="geometry">
            <mxPoint x="280" y="420" as="sourcePoint" />
            <mxPoint x="280" y="480" as="targetPoint" />
          </mxGeometry>
        </mxCell>
        <mxCell id="4pMJG9k6GhykvoCumbi--17" value="" style="endArrow=classic;html=1;rounded=0;exitX=0.149;exitY=0.994;exitDx=0;exitDy=0;exitPerimeter=0;" edge="1" parent="WIyWlLk6GJQsqaUBKTNV-1">
          <mxGeometry width="50" height="50" relative="1" as="geometry">
            <mxPoint x="413.7599999999999" y="420.00000000000006" as="sourcePoint" />
            <mxPoint x="414.15999999999997" y="480.18" as="targetPoint" />
          </mxGeometry>
        </mxCell>
        <mxCell id="4pMJG9k6GhykvoCumbi--18" value="" style="endArrow=classic;html=1;rounded=0;exitX=0.149;exitY=0.994;exitDx=0;exitDy=0;exitPerimeter=0;" edge="1" parent="WIyWlLk6GJQsqaUBKTNV-1">
          <mxGeometry width="50" height="50" relative="1" as="geometry">
            <mxPoint x="549.76" y="419.82000000000005" as="sourcePoint" />
            <mxPoint x="550.1600000000001" y="480" as="targetPoint" />
          </mxGeometry>
        </mxCell>
        <mxCell id="4pMJG9k6GhykvoCumbi--23" style="edgeStyle=orthogonalEdgeStyle;rounded=0;orthogonalLoop=1;jettySize=auto;html=1;entryX=0.5;entryY=0;entryDx=0;entryDy=0;" edge="1" parent="WIyWlLk6GJQsqaUBKTNV-1" source="4pMJG9k6GhykvoCumbi--19" target="4pMJG9k6GhykvoCumbi--22">
          <mxGeometry relative="1" as="geometry">
            <Array as="points">
              <mxPoint x="280" y="560" />
              <mxPoint x="414" y="560" />
            </Array>
          </mxGeometry>
        </mxCell>
        <mxCell id="4pMJG9k6GhykvoCumbi--19" value="Damage Increases" style="rounded=1;whiteSpace=wrap;html=1;" vertex="1" parent="WIyWlLk6GJQsqaUBKTNV-1">
          <mxGeometry x="220" y="480" width="120" height="50" as="geometry" />
        </mxCell>
        <mxCell id="4pMJG9k6GhykvoCumbi--24" style="edgeStyle=orthogonalEdgeStyle;rounded=0;orthogonalLoop=1;jettySize=auto;html=1;" edge="1" parent="WIyWlLk6GJQsqaUBKTNV-1" source="4pMJG9k6GhykvoCumbi--20">
          <mxGeometry relative="1" as="geometry">
            <mxPoint x="414" y="600" as="targetPoint" />
          </mxGeometry>
        </mxCell>
        <mxCell id="4pMJG9k6GhykvoCumbi--20" value="Defense &amp;amp; Health Regeneration Increases" style="rounded=1;whiteSpace=wrap;html=1;" vertex="1" parent="WIyWlLk6GJQsqaUBKTNV-1">
          <mxGeometry x="354" y="480" width="120" height="50" as="geometry" />
        </mxCell>
        <mxCell id="4pMJG9k6GhykvoCumbi--25" style="edgeStyle=orthogonalEdgeStyle;rounded=0;orthogonalLoop=1;jettySize=auto;html=1;" edge="1" parent="WIyWlLk6GJQsqaUBKTNV-1" source="4pMJG9k6GhykvoCumbi--21" target="4pMJG9k6GhykvoCumbi--22">
          <mxGeometry relative="1" as="geometry">
            <Array as="points">
              <mxPoint x="550" y="560" />
              <mxPoint x="414" y="560" />
            </Array>
          </mxGeometry>
        </mxCell>
        <mxCell id="4pMJG9k6GhykvoCumbi--21" value="Maneuverability increases" style="rounded=1;whiteSpace=wrap;html=1;" vertex="1" parent="WIyWlLk6GJQsqaUBKTNV-1">
          <mxGeometry x="490" y="480" width="120" height="50" as="geometry" />
        </mxCell>
        <mxCell id="4pMJG9k6GhykvoCumbi--22" value="Player becomes more powerful" style="rounded=1;whiteSpace=wrap;html=1;" vertex="1" parent="WIyWlLk6GJQsqaUBKTNV-1">
          <mxGeometry x="354" y="600" width="120" height="45" as="geometry" />
        </mxCell>
      </root>
    </mxGraphModel>
  </diagram>
</mxfile>
